# File created by Blade
# Date/Time:  Thu Jan 22 15:33:09 2015
#---------------------------------------------------------
:version 1.10
:name HOM
:units
  mass 1.0
  length 1.000000
  angle deg
:documentation
     Acclaim Skeleton File
:root
   axis xyz
   order TX TY TZ RX RY RZ
   position 0.000000 0.000000 0.000000
   orientation 0 0 0
:bonedata
   begin
      id 1
      name RightUpLeg_dum
      direction -1.000000 0.000000 0.000000
      length 3.693983
      axis 0.0 0.0 0.0 xyz
   end
   begin
      id 2
      name LeftUpLeg_dum
      direction 1.000000 0.000000 0.000000
      length 3.693983
      axis 0.0 0.0 0.0 xyz
   end
   begin
      id 3
      name Spine_dum
      direction 0.000000 1.000000 0.000000
      length 2.392956
      axis 0.0 0.0 0.0 xyz
   end
   begin
      id 4
      name RightUpLeg
      direction 0.000000 -1.000000 0.000000
      length 15.795667
      axis 0.0 0.0 0.0 xyz
      dof rx ry rz
   end
   begin
      id 5
      name RightLeg
      direction 0.000000 -1.000000 0.000000
      length 14.766989
      axis 0.0 0.0 0.0 xyz
      dof rx ry rz
   end
   begin
      id 6
      name RightFoot
      direction 0.000000 -0.258819 0.965926
      length 4.962790
      axis 15.0 0.0 0.0 xyz
      dof rx ry rz
   end
   begin
      id 7
      name RightToeBase
      direction 0.000000 0.000000 1.000000
      length 2.952750
      axis 0.0 0.0 0.0 xyz
      dof rx ry rz
   end
   begin
      id 8
      name LeftUpLeg
      direction 0.000000 -1.000000 0.000000
      length 15.795667
      axis 0.0 0.0 0.0 xyz
      dof rx ry rz
   end
   begin
      id 9
      name LeftLeg
      direction 0.000000 -1.000000 0.000000
      length 14.766989
      axis 0.0 0.0 0.0 xyz
      dof rx ry rz
   end
   begin
      id 10
      name LeftFoot
      direction 0.000000 -0.258819 0.965926
      length 4.962790
      axis 15.0 0.0 0.0 xyz
      dof rx ry rz
   end
   begin
      id 11
      name LeftToeBase
      direction 0.000000 0.000000 1.000000
      length 2.952750
      axis 0.0 0.0 0.0 xyz
      dof rx ry rz
   end
   begin
      id 12
      name Spine
      direction 0.000000 1.000000 0.000000
      length 0.000000
      axis 0.0 0.0 0.0 xyz
      dof rx ry rz
   end
   begin
      id 13
      name Spine_dum1
      direction 0.000000 1.000000 0.000000
      length 13.207411
      axis 0.0 0.0 0.0 xyz
   end
   begin
      id 14
      name Spine_dum2
      direction 0.000000 1.000000 0.000000
      length 13.207411
      axis 0.0 0.0 0.0 xyz
   end
   begin
      id 15
      name Spine_dum3
      direction 0.000000 1.000000 0.000000
      length 19.250100
      axis 0.0 0.0 0.0 xyz
   end
   begin
      id 16
      name RightShoulder
      direction -1.000000 0.000000 0.000000
      length 8.140465
      axis 0.0 0.0 90.0 xyz
      dof rx ry rz
   end
   begin
      id 17
      name RightArm
      direction -1.000000 0.000000 0.000000
      length 10.649840
      axis 0.0 0.0 90.0 xyz
      dof rx ry rz
   end
   begin
      id 18
      name RightForeArm
      direction -1.000000 0.000000 0.000000
      length 8.304624
      axis 0.0 0.0 90.0 xyz
      dof ry rz rx
   end
   begin
      id 19
      name RightHand
      direction -1.000000 0.000000 0.000000
      length 0.000000
      axis 0.0 0.0 90.0 xyz
      dof rx ry rz
   end
   begin
      id 20
      name RightHand_dum1
      direction -1.000000 0.000000 0.000000
      length 3.937000
      axis 0.0 0.0 90.0 xyz
   end
   begin
      id 21
      name RightHand_dum2
      direction 0.000000 0.000000 0.000000
      length 0.000000
      axis 0.0 0.0 90.0 xyz
   end
   begin
      id 22
      name RightHandThumb1
      direction 0.000000 0.000000 1.000000
      length 3.937000
      axis 0.0 0.0 90.0 xyz
      dof rx rz ry
   end
   begin
      id 23
      name LeftShoulder
      direction 1.000000 0.000000 0.000000
      length 8.140465
      axis 0.0 0.0 -90.0 xyz
      dof rx ry rz
   end
   begin
      id 24
      name LeftArm
      direction 1.000000 0.000000 0.000000
      length 10.649840
      axis 0.0 0.0 -90.0 xyz
      dof rx ry rz
   end
   begin
      id 25
      name LeftForeArm
      direction 1.000000 0.000000 0.000000
      length 8.304624
      axis 0.0 0.0 -90.0 xyz
      dof ry rz rx
   end
   begin
      id 26
      name LeftHand
      direction 1.000000 0.000000 0.000000
      length 0.000000
      axis 0.0 0.0 -90.0 xyz
      dof rx ry rz
   end
   begin
      id 27
      name LeftHand_dum1
      direction 1.000000 0.000000 0.000000
      length 3.937000
      axis 0.0 0.0 -90.0 xyz
   end
   begin
      id 28
      name LeftHand_dum2
      direction 0.000000 0.000000 0.000000
      length 0.000000
      axis 0.0 0.0 -90.0 xyz
   end
   begin
      id 29
      name LeftHandThumb1
      direction 0.000000 0.000000 1.000000
      length 3.937000
      axis 0.0 0.0 -90.0 xyz
      dof rx rz ry
   end
   begin
      id 30
      name Head
      direction 0.000000 1.000000 0.000000
      length 4.527550
      axis 0.0 0.0 0.0 xyz
      dof rx ry rz
   end
:hierarchy
   begin
      root RightUpLeg_dum LeftUpLeg_dum Spine_dum
      RightUpLeg_dum RightUpLeg
      LeftUpLeg_dum LeftUpLeg
      Spine_dum Spine
      RightUpLeg RightLeg
      RightLeg RightFoot
      RightFoot RightToeBase
      LeftUpLeg LeftLeg
      LeftLeg LeftFoot
      LeftFoot LeftToeBase
      Spine Spine_dum1 Spine_dum2 Spine_dum3
      Spine_dum1 RightShoulder
      Spine_dum2 LeftShoulder
      Spine_dum3 Head
      RightShoulder RightArm
      RightArm RightForeArm
      RightForeArm RightHand
      RightHand RightHand_dum1 RightHand_dum2
      RightHand_dum2 RightHandThumb1
      LeftShoulder LeftArm
      LeftArm LeftForeArm
      LeftForeArm LeftHand
      LeftHand LeftHand_dum1 LeftHand_dum2
      LeftHand_dum2 LeftHandThumb1
   end

# File created by Blade
# Date/Time:  Thu Jan 22 15:33:01 2015
# Frame Rate: 120.000 fps
#------------------------------------------------------
:FULLY-SPECIFIED
:DEGREES
1307
root 11.416271 19.208206 5.043265 215.287549 -72.635718 -451.167967
RightUpLeg -106.591070 10.835866 -8.020558
RightLeg 68.527627 -0.000000 -0.000000
RightFoot 55.682358 -4.186139 10.303832
RightToeBase 50.202668 -0.000000 -0.000000
LeftUpLeg -104.583817 27.134269 -5.415540
LeftLeg 81.330183 -0.000000 -0.000000
LeftFoot 32.521775 -9.984762 -20.909359
LeftToeBase 46.249417 -0.000000 -0.000000
Spine 66.036277 24.047963 -3.476001
RightShoulder -161.799206 49.962988 177.098590
RightArm 163.058505 47.679545 100.001577
RightForeArm 53.723642 -0.000000 111.265253
RightHand 6.352480 -0.000000 8.476997
RightHandThumb1 -24.326973 -0.000000 -32.862282
LeftShoulder -11.727249 48.523703 28.056873
LeftArm 10.236057 57.395560 -56.201404
LeftForeArm -25.522041 -0.000000 109.314001
LeftHand -14.859876 -0.000000 -9.305448
LeftHandThumb1 -26.253704 0.000000 33.147579
Head 102.419774 3.415912 -31.466750
1308
root 11.462748 19.208859 5.042694 215.090356 -72.696373 -451.081277
RightUpLeg -106.521242 10.944469 -7.660063
RightLeg 69.167378 -0.000000 -0.000000
RightFoot 55.775672 -3.331133 10.079157
RightToeBase 49.598253 -0.000000 -0.000000
LeftUpLeg -104.561075 26.949315 -5.463936
LeftLeg 82.031378 -0.000000 -0.000000
LeftFoot 32.340718 -10.384366 -20.840254
LeftToeBase 46.667518 -0.000000 -0.000000
Spine 66.028467 24.009889 -3.430982
RightShoulder -161.813022 49.916277 177.011456
RightArm 163.104354 47.747756 100.024610
RightForeArm 53.745135 -0.000000 111.215041
RightHand 6.429278 -0.000000 8.368371
RightHandThumb1 -24.326973 -0.000000 -32.862282
LeftShoulder -11.898227 48.492409 28.001531
LeftArm 10.350868 57.339972 -56.118566
LeftForeArm -25.771941 -0.000000 109.277911
LeftHand -14.948480 -0.000000 -9.503901
LeftHandThumb1 -26.253704 0.000000 33.147579
Head 102.431961 3.611578 -31.623887
1309
root 11.510794 19.218820 5.029613 215.015694 -72.573392 -450.943337
RightUpLeg -106.664417 11.240544 -7.480943
RightLeg 69.686006 -0.000000 -0.000000
RightFoot 55.777050 -3.417617 10.266232
RightToeBase 49.880049 -0.000000 -0.000000
LeftUpLeg -104.753713 26.970902 -5.726434
LeftLeg 82.761712 -0.000000 -0.000000
LeftFoot 32.332783 -10.645540 -21.231395
LeftToeBase 46.485766 -0.000000 -0.000000
Spine 65.804960 24.206827 -3.551446
RightShoulder -161.765444 49.863154 176.973156
RightArm 163.143560 47.881588 100.011718
RightForeArm 53.743216 -0.000000 111.142281
RightHand 6.572315 0.000000 8.388857
RightHandThumb1 -24.326973 -0.000000 -32.862282
LeftShoulder -11.981994 48.500077 28.075249
LeftArm 10.477642 57.352141 -56.014442
LeftForeArm -25.505597 0.000000 109.300901
LeftHand -14.977699 -0.000000 -9.280641
LeftHandThumb1 -26.253704 0.000000 33.147579
Head 102.456696 3.687691 -31.794129
1310
root 11.551747 19.224433 5.014407 214.626438 -72.530791 -450.681351
RightUpLeg -106.572942 11.529606 -7.222492
RightLeg 70.200053 -0.000000 -0.000000
RightFoot 55.796530 -3.443401 10.469294
RightToeBase 50.109629 -0.000000 -0.000000
LeftUpLeg -104.711116 26.959234 -5.812414
LeftLeg 83.468540 -0.000000 -0.000000
LeftFoot 32.223734 -11.082474 -21.246569
LeftToeBase 46.687602 -0.000000 -0.000000
Spine 65.829253 24.353271 -3.509465
RightShoulder -161.752571 49.751710 176.825495
RightArm 163.176714 48.017601 99.973641
RightForeArm 53.798501 -0.000000 111.104105
RightHand 6.478217 -0.000000 8.169995
RightHandThumb1 -24.326973 -0.000000 -32.862282
LeftShoulder -12.070070 48.392235 28.191909
LeftArm 10.515017 57.423519 -56.032055
LeftForeArm -25.391212 -0.000000 109.314555
LeftHand -15.104618 -0.000000 -9.114057
LeftHandThumb1 -26.253704 0.000000 33.147579
Head 102.480698 3.724694 -31.871795
1311
root 11.594495 19.222211 5.008775 214.549560 -72.446172 -450.928094
RightUpLeg -106.329437 11.751129 -7.053924
RightLeg 70.785212 -0.000000 -0.000000
RightFoot 55.758876 -3.320515 10.597652
RightToeBase 50.202785 -0.000000 -0.000000
LeftUpLeg -104.417680 26.886070 -5.918779
LeftLeg 84.180345 -0.000000 -0.000000
LeftFoot 32.269643 -11.183234 -21.811828
LeftToeBase 46.435828 -0.000000 -0.000000
Spine 66.099822 24.377764 -3.538084
RightShoulder -161.691639 49.538197 176.679309
RightArm 163.109133 48.182430 99.879582
RightForeArm 53.779406 -0.000000 111.086297
RightHand 6.431782 0.000000 8.177646
RightHandThumb1 -24.326973 -0.000000 -32.862282
LeftShoulder -12.378588 48.363878 27.958548
LeftArm 10.700032 57.387274 -55.748466
LeftForeArm -25.375362 -0.000000 109.387297
LeftHand -15.049009 -0.000000 -9.140517
LeftHandThumb1 -26.253704 0.000000 33.147579
Head 102.589304 3.628331 -31.462751
